<svg  xmlns="http://www.w3.org/2000/svg" x="0px" y="0px" width="500px" height="150px" viewBox="0 0 500 150">
<g data-name="tagline">
<path fill="#259386" d="M126.3,122.4c-1.2-3.4-1.9-5.1-2.2-6.1h0c-0.3,1.1-1.1,3.2-2,6.1H126.3z M121.6,123.9l-1.4,3.8h-1.7
l4.5-12.8h2.1l4.7,12.8h-1.8l-1.4-3.8H121.6z"/>
<path fill="#259386" d="M137.9,114.2v5.5c0.5-0.8,1.3-1.6,2.9-1.6c1.5,0,3.1,0.8,3.1,3.6v5.9h-1.6V122c0-1.6-0.7-2.5-2-2.5
c-1.7,0-2.4,1.1-2.4,3v5.1h-1.6v-13.5H137.9z"/>
<path fill="#259386" d="M146.6,118.4h1.6v9.3h-1.6V118.4z M146.6,114.2h1.6v2h-1.6V114.2z"/>
<path fill="#259386" d="M152,123c0,2,1,3.3,2.5,3.3c2,0,2.6-1.3,2.6-3.4c0-2.1-0.5-3.3-2.5-3.3C152.8,119.5,152,121,152,123
M158.6,126.8c0,3-1.2,4.7-4.3,4.7c-2.8,0-3.7-1.6-3.8-2.8h1.6c0.3,1,1.1,1.6,2.3,1.6c2.1,0,2.6-1.3,2.6-3.5V126
c-0.5,1-1.3,1.6-2.9,1.6c-2.3,0-3.8-1.9-3.8-4.6c0-3,1.8-4.9,4-4.9c1.8,0,2.5,0.8,2.7,1.5c0-0.4,0.1-1,0.1-1.2h1.5
c0,0.5,0,1.8,0,2.7V126.8z"/>
<path fill="#259386" d="M162.9,114.2v5.5c0.5-0.8,1.3-1.6,2.9-1.6c1.5,0,3.1,0.8,3.1,3.6v5.9h-1.6V122c0-1.6-0.7-2.5-2-2.5
c-1.7,0-2.4,1.1-2.4,3v5.1h-1.6v-13.5H162.9z"/>
<path fill="#259386" d="M177.6,122.2c0-1.5-0.8-2.8-2.4-2.8c-1.6,0-2.3,1.1-2.5,2.8H177.6z M172.6,123.3c0,1.9,1,3.2,2.5,3.2
c1.5,0,1.9-0.8,2.2-1.4h1.6c-0.4,1.2-1.4,2.8-3.9,2.8c-2.9,0-4.1-2.4-4.1-4.8c0-2.8,1.4-5,4.2-5c3,0,4,2.4,4,4.4
c0,0.3,0,0.5,0,0.8H172.6z"/>
<path fill="#259386" d="M181.3,120.9c0-1.3,0-2,0-2.5h1.6c0,0.3,0,1,0,1.9c0.5-1.3,1.6-2.1,3.1-2.1v1.6c-1.9,0.1-3.1,1.1-3.1,3.4
v4.5h-1.6V120.9z"/>
<rect x="192.3" y="114.2" fill="#259386" width="1.6" height="13.5"/>
<path fill="#259386" d="M196.7,118.4h1.6v9.3h-1.6V118.4z M196.7,114.2h1.6v2h-1.6V114.2z"/>
<path fill="#259386" d="M201.6,118.4c1.2,3.8,2.2,6.7,2.4,7.8h0c0.2-1,1.2-3.8,2.6-7.8h1.6l-3.4,9.3h-1.8l-3.2-9.3H201.6z"/>
<path fill="#259386" d="M210,118.4h1.6v9.3H210V118.4z M210,114.2h1.6v2H210V114.2z"/>
<path fill="#259386" d="M214.3,120.7c0-0.8,0-1.6,0-2.3h1.6c0,0.3,0.1,1.3,0.1,1.5c0.4-0.8,1.1-1.7,2.9-1.7c1.7,0,3.1,1.1,3.1,3.5
v6h-1.6v-5.8c0-1.4-0.5-2.4-2-2.4c-1.7,0-2.5,1.3-2.5,3.2v4.9h-1.6V120.7z"/>
<path fill="#259386" d="M225.7,123c0,2,1,3.3,2.5,3.3c2,0,2.6-1.3,2.6-3.4c0-2.1-0.5-3.3-2.5-3.3C226.5,119.5,225.7,121,225.7,123
M232.3,126.8c0,3-1.2,4.7-4.3,4.7c-2.8,0-3.7-1.6-3.8-2.8h1.6c0.3,1,1.1,1.6,2.3,1.6c2.1,0,2.6-1.3,2.6-3.5V126
c-0.5,1-1.3,1.6-2.9,1.6c-2.3,0-3.8-1.9-3.8-4.6c0-3,1.8-4.9,4-4.9c1.8,0,2.5,0.8,2.7,1.5c0-0.4,0.1-1,0.1-1.2h1.5
c0,0.5,0,1.8,0,2.7V126.8z"/>
<path fill="#259386" d="M233.8,129.8c1-2,1.2-3.7,1.3-4.8h1.6c-0.2,1.6-0.7,3.5-1.6,4.8H233.8z"/>
<path fill="#259386" d="M249,123.1h-1.5c-1.8,0-2.8,0.5-2.8,1.8c0,1,0.7,1.7,1.8,1.7c2.2,0,2.5-1.5,2.5-3.2V123.1z M250.5,125.7
c0,0.8,0.1,1.8,0.1,2h-1.5c-0.1-0.2-0.1-0.7-0.2-1.2c-0.3,0.6-1.1,1.4-2.9,1.4c-2.2,0-3.1-1.4-3.1-2.8c0-2.1,1.6-3,4.4-3h1.6v-0.8
c0-0.8-0.3-1.8-2-1.8c-1.5,0-1.8,0.8-2,1.5h-1.6c0.1-1.3,0.9-2.8,3.6-2.8c2.3,0,3.5,0.9,3.5,3V125.7z"/>
<path fill="#259386" d="M258.9,123c0,2,1,3.3,2.5,3.3c2,0,2.6-1.3,2.6-3.4c0-2.1-0.5-3.3-2.5-3.3C259.8,119.5,258.9,121,258.9,123
M265.6,126.8c0,3-1.2,4.7-4.3,4.7c-2.8,0-3.7-1.6-3.8-2.8h1.6c0.3,1,1.1,1.6,2.3,1.6c2.1,0,2.6-1.3,2.6-3.5V126
c-0.5,1-1.3,1.6-2.9,1.6c-2.3,0-3.8-1.9-3.8-4.6c0-3,1.8-4.9,4-4.9c1.8,0,2.5,0.8,2.7,1.5c0-0.4,0.1-1,0.1-1.2h1.5
c0,0.5,0,1.8,0,2.7V126.8z"/>
<path fill="#259386" d="M268.3,120.9c0-1.3,0-2,0-2.5h1.6c0,0.3,0,1,0,1.9c0.5-1.3,1.6-2.1,3.1-2.1v1.6c-1.9,0.1-3.1,1.1-3.1,3.4
v4.5h-1.6V120.9z"/>
<path fill="#259386" d="M275.6,123c0,2,1,3.5,2.7,3.5c1.7,0,2.7-1.4,2.7-3.5c0-2.1-0.9-3.5-2.7-3.5
C276.5,119.5,275.6,120.9,275.6,123 M282.5,123c0,2.7-1.5,4.9-4.4,4.9c-2.7,0-4.3-2.1-4.3-4.9c0-2.7,1.6-4.9,4.4-4.9
C280.9,118.2,282.5,120.1,282.5,123"/>
<path fill="#259386" d="M292.1,125c0,0.9,0,2.2,0,2.7h-1.6c0-0.2-0.1-0.8-0.1-1.4c-0.5,1-1.4,1.6-2.8,1.6c-1.6,0-3.1-0.8-3.1-3.4
v-6.1h1.6v5.8c0,1.2,0.4,2.4,1.9,2.4c1.7,0,2.4-0.9,2.4-3.3v-4.9h1.6V125z"/>
<path fill="#259386" d="M294.8,120.7c0-0.8,0-1.6,0-2.3h1.6c0,0.3,0.1,1.3,0.1,1.5c0.4-0.8,1.1-1.7,2.9-1.7c1.7,0,3.1,1.1,3.1,3.5
v6h-1.6v-5.8c0-1.4-0.5-2.4-2-2.4c-1.7,0-2.5,1.3-2.5,3.2v4.9h-1.6V120.7z"/>
<path fill="#259386" d="M306.2,123.1c0,2.2,1.1,3.5,2.5,3.5c2.2,0,2.6-1.6,2.6-3.6c0-2.1-0.4-3.4-2.5-3.4
C307.2,119.5,306.2,120.8,306.2,123.1 M312.9,114.2v10.8c0,0.9,0,1.7,0,2.6h-1.5c0-0.2-0.1-1-0.1-1.3c-0.5,1-1.4,1.5-2.9,1.5
c-2.4,0-3.8-1.9-3.8-4.8c0-2.9,1.6-5,4.1-5c1.6,0,2.4,0.7,2.6,1.2v-5.1H312.9z"/>
<path fill="#259386" d="M321.5,122.2c0-1.5-0.8-2.8-2.4-2.8c-1.6,0-2.3,1.1-2.5,2.8H321.5z M316.6,123.3c0,1.9,1,3.2,2.5,3.2
c1.5,0,1.9-0.8,2.2-1.4h1.6c-0.4,1.2-1.4,2.8-3.9,2.8c-2.9,0-4.1-2.4-4.1-4.8c0-2.8,1.4-5,4.2-5c3,0,4,2.4,4,4.4
c0,0.3,0,0.5,0,0.8H316.6z"/>
<path fill="#259386" d="M326.3,123.1c0,2.2,1.1,3.5,2.5,3.5c2.2,0,2.6-1.6,2.6-3.6c0-2.1-0.4-3.4-2.5-3.4
C327.3,119.5,326.3,120.8,326.3,123.1 M333,114.2v10.8c0,0.9,0,1.7,0,2.6h-1.5c0-0.2-0.1-1-0.1-1.3c-0.5,1-1.4,1.5-2.9,1.5
c-2.4,0-3.8-1.9-3.8-4.8c0-2.9,1.6-5,4.1-5c1.6,0,2.4,0.7,2.6,1.2v-5.1H333z"/>
<path fill="#259386" d="M347.1,122.9c0-2-0.9-3.4-2.5-3.4c-2,0-2.7,1.3-2.7,3.5c0,1.9,0.6,3.5,2.6,3.5
C346.1,126.5,347.1,125.1,347.1,122.9 M340.4,114.2h1.6v5.5c0.4-0.8,1.3-1.5,3-1.5c2.3,0,3.8,1.9,3.8,4.7c0,2.8-1.4,5.1-4,5.1
c-1.5,0-2.3-0.5-2.7-1.4c0,0.5,0,1-0.1,1.2h-1.5c0-1,0-2.1,0-3.1V114.2z"/>
<path fill="#259386" d="M356.8,122.2c0-1.5-0.8-2.8-2.4-2.8c-1.6,0-2.3,1.1-2.5,2.8H356.8z M351.9,123.3c0,1.9,1,3.2,2.5,3.2
c1.5,0,1.9-0.8,2.2-1.4h1.6c-0.4,1.2-1.4,2.8-3.9,2.8c-2.9,0-4.1-2.4-4.1-4.8c0-2.8,1.4-5,4.2-5c3,0,4,2.4,4,4.4
c0,0.3,0,0.5,0,0.8H351.9z"/>
<path fill="#259386" d="M360.6,118.4h1.6v9.3h-1.6V118.4z M360.6,114.2h1.6v2h-1.6V114.2z"/>
<path fill="#259386" d="M364.9,120.7c0-0.8,0-1.6,0-2.3h1.6c0,0.3,0.1,1.3,0.1,1.5c0.4-0.8,1.1-1.7,2.9-1.7c1.7,0,3.1,1.1,3.1,3.5
v6h-1.6v-5.8c0-1.4-0.5-2.4-2-2.4c-1.7,0-2.5,1.3-2.5,3.2v4.9h-1.6V120.7z"/>
<path fill="#259386" d="M376.3,123c0,2,1,3.3,2.5,3.3c2,0,2.6-1.3,2.6-3.4c0-2.1-0.5-3.3-2.5-3.3C377.1,119.5,376.3,121,376.3,123
M382.9,126.8c0,3-1.2,4.7-4.3,4.7c-2.8,0-3.7-1.6-3.8-2.8h1.6c0.3,1,1.1,1.6,2.3,1.6c2.1,0,2.6-1.3,2.6-3.5V126
c-0.5,1-1.3,1.6-2.9,1.6c-2.3,0-3.8-1.9-3.8-4.6c0-3,1.8-4.9,4-4.9c1.8,0,2.5,0.8,2.7,1.5c0-0.4,0.1-1,0.1-1.2h1.5
c0,0.5,0,1.8,0,2.7V126.8z"/>
<rect x="385.1" y="125" fill="#259386" width="1.7" height="2.7"/>
</g>
<g data-name="main">
<path id="circle" fill="#d8e7e4" d="M125.6,46.4c0,13.4-10.8,24.2-24.1,24.2c-32-1.3-32-47.2,0-48.4
C114.8,22.2,125.6,33.1,125.6,46.4"/>
<path fill="#259386" d="M475,79.5c-0.7,2.4-1.3,4.7-1.9,7h-36.3V22.2
h35.4c0.4,2.2,0.8,4.3,1.2,6.6c-0.5-0.1-0.9-0.1-1.3-0.2c-5-1.8-10.2-2.9-15.5-3.4c-3.4-0.3-6.8-0.4-10.2-0.3v26.8
c7.2-0.1,14.1,0.1,21.1-1.7v6.4c-0.3,0-0.7,0-1-0.1c-6.4-2.2-13.4-2-20.1-2v29.4c3.3,0,6.7,0,10-0.3c5.9-0.4,11.7-1.7,17.2-3.8
C473.9,79.6,474.4,79.6,475,79.5"/>
<path fill="#259386" d="M393.8,64.2c3.2,0.3,6.4,0.8,9.6,0.1
c8.7-2.1,11.8-12.3,10-20.2c-2.2-10-11-10.6-19.6-10.2V64.2z M384.7,31.4c10.9,0.5,25.6-2.2,34.2,5.6c4.7,4.5,5.3,12,2.8,17.8
c-2.3,5-7.1,7.9-12,9.9c7.8,10.3,15.7,20.7,23.5,31c-3.5,0.1-6.9,0-10.4,0c-0.2,0-0.4-0.1-0.6-0.3c-4.7-6.2-9.3-12.4-14-18.6
c-2-2.6-4-5.3-5.9-7.9c-0.8-1.1-1.9-1.8-3.3-1.8c-1.7,0.1-3.5-0.1-5.2,0v28.5h-9.1V31.4z"/>
<path fill="#036155" d="M325,63.4c-0.3,14.4,7.7,32.5,25,29.2
c16-3.6,18.4-24.8,15.8-38.3c-1.8-10.3-9.1-21.1-20.7-20.5C330.2,34.2,324.7,50.6,325,63.4 M315,62.7
c-0.1-13.5,9.1-27.3,23.1-30.3c7.2-1.8,14.3-1.4,21.2,1.6c16.8,6.7,21.4,28.6,14.4,44c-4,8.6-10.7,14.1-19.8,16.5
C332.3,99.7,314.1,85.3,315,62.7"/>
<path fill="#259386" d="M302.4,22c1.9,21.5,3.8,42.9,5.7,64.3h-9.5
c-1.6-18.5-3.3-37-4.9-55.6c0,0-0.1,0-0.1,0c-6.4,17-12.8,34-19.2,51c-0.2,0.6-0.6,0.8-1.2,0.6c-7.5-16.4-14.4-33.3-21.7-49.8
c-1.2,17.9-4,35.9-2.4,53.8h-6.2c2.8-13.8,3.7-27.8,4.9-41.8c0.3-3.3,0.6-6.5,0.8-9.8c0.1-2.4,0.8-5.8,0.5-8
c-0.5-1.6-1.7-3-1.6-4.7h9.9c6.6,15.1,13,30.4,19.5,45.5c5.7-15.2,11.3-30.4,17.1-45.5H302.4z"/>
<path fill="#259386" d="M197.4,72.6h21.2c-3.5-8.8-7-17.5-10.6-26.3
C204.4,55.1,200.9,63.8,197.4,72.6 M238.3,95.5h-6.5c-1.2,0-2.5,0-3.7,0c-0.3,0-0.4-0.1-0.5-0.4c-2.6-6.5-5.2-12.9-7.7-19.4
c-0.2-0.4-0.4-0.6-0.8-0.6c-7.4,0-14.7,0-22.1,0c-0.4,0-0.6,0.1-0.8,0.5c-2.3,6.4-4.4,12.9-4.6,19.7h-7.2
C194,74.6,202.1,53,211,31.7c0.2-0.5,0.5-0.4,0.8-0.5c0.4,0,0.5,0.2,0.6,0.5C221,53,229.7,74.3,238.3,95.5"/>
<path fill="#259386" d="M180.9,78.9c0.6,0.4,1.2,0.8,1.9,1.2
c-7.4,13.3-22,18.8-36.2,13.3c-20.1-8-23-38.2-9.2-53.1c11.5-12.6,33.8-12,44.5,1.3c-1.6,1.5-3.3,3.1-4.9,4.6
c-4.9-9-14.8-15.8-25.1-11.1c-11.4,5.6-13.8,20.4-12.6,31.9c0.9,9.9,6.4,20.6,16.8,23C166.1,92.5,175.9,87.6,180.9,78.9"/>
<path fill="#036155" d="M125.8,22c-5.5,9.9-11,19.9-16.2,29.9
c-0.9,1.8-1.9,3.5-2.8,5.3c-0.2,0.3-0.3,0.7-0.3,1c0,9.3,0,18.6,0,27.9h-9.4c0-9,0-18,0-26.9C91,46.6,83.7,34.5,77.3,22h10.8
c5.6,10.8,11.4,21.5,17.1,32.3c5.5-10.4,11.5-20.7,14.2-32.3H125.8z"/>
<path fill="#259386" d="M31,90.7c0.7-2.2,1.3-4.4,2-6.7
c6.3,7.7,21.2,12.3,29.7,6c5.2-3.9,5.7-11.2,1.2-15.9c-1.8-1.9-3.9-3.3-6.3-4.4c-6.1-3-12.6-5-18.2-8.8
c-7.7-4.9-9.9-15.3-3.9-22.6c8.9-10.1,25.3-7.9,36.2-2.3c-0.6,2-1.2,4-1.8,6c-6.1-6.2-15.5-10.5-24-7.1
c-6.8,2.5-8.4,11.6-2.8,16.3c7.5,6.2,18.1,7.6,25.6,13.8C77,71.7,76,85.1,67.4,91C57.3,98.3,41.7,95.4,31,90.7"/>
</g>
</svg>
